<mxfile modified="2023-06-22T12:26:37.289Z" host="app.diagrams.net" agent="Mozilla/5.0 (Windows NT 10.0; Win64; x64) AppleWebKit/537.36 (KHTML, like Gecko) Chrome/114.0.0.0 Safari/537.36 Edg/114.0.1823.43" etag="wPSZpfT0sSsrVdYUK_iS" version="21.4.0" type="onedrive">
  <diagram id="Ht1M8jgEwFfnCIfOTk4-" name="Page-1">
    <mxGraphModel dx="1674" dy="788" grid="1" gridSize="10" guides="1" tooltips="1" connect="1" arrows="1" fold="1" page="1" pageScale="1" pageWidth="1169" pageHeight="827" math="0" shadow="0">
      <root>
        <mxCell id="0" />
        <mxCell id="1" parent="0" />
        <mxCell id="36ijze459BlmUgiJYiWi-1" value="OCLWeb" style="swimlane;whiteSpace=wrap;html=1;" parent="1" vertex="1">
          <mxGeometry x="20" y="50" width="340" height="330" as="geometry" />
        </mxCell>
        <mxCell id="36ijze459BlmUgiJYiWi-7" value="OCLWeb&lt;br&gt;React" style="outlineConnect=0;dashed=0;verticalLabelPosition=bottom;verticalAlign=top;align=center;html=1;shape=mxgraph.aws3.cloudfront;fillColor=#F58536;gradientColor=none;" parent="36ijze459BlmUgiJYiWi-1" vertex="1">
          <mxGeometry x="130" y="79.5" width="60" height="51.5" as="geometry" />
        </mxCell>
        <mxCell id="36ijze459BlmUgiJYiWi-2" value="OCLApi" style="swimlane;whiteSpace=wrap;html=1;" parent="1" vertex="1">
          <mxGeometry x="400" y="50" width="470" height="330" as="geometry" />
        </mxCell>
        <mxCell id="36ijze459BlmUgiJYiWi-14" style="edgeStyle=orthogonalEdgeStyle;rounded=0;orthogonalLoop=1;jettySize=auto;html=1;entryX=0.188;entryY=0;entryDx=0;entryDy=0;entryPerimeter=0;exitX=0.94;exitY=0.813;exitDx=0;exitDy=0;exitPerimeter=0;" parent="36ijze459BlmUgiJYiWi-2" source="36ijze459BlmUgiJYiWi-11" target="36ijze459BlmUgiJYiWi-13" edge="1">
          <mxGeometry relative="1" as="geometry">
            <Array as="points">
              <mxPoint x="299" y="121" />
            </Array>
          </mxGeometry>
        </mxCell>
        <mxCell id="36ijze459BlmUgiJYiWi-11" value="OCLAPI&lt;br&gt;Python" style="sketch=0;html=1;dashed=0;whitespace=wrap;fillColor=#2875E2;strokeColor=#ffffff;points=[[0.005,0.63,0],[0.1,0.2,0],[0.9,0.2,0],[0.5,0,0],[0.995,0.63,0],[0.72,0.99,0],[0.5,1,0],[0.28,0.99,0]];verticalLabelPosition=bottom;align=center;verticalAlign=top;shape=mxgraph.kubernetes.icon;prIcon=api" parent="36ijze459BlmUgiJYiWi-2" vertex="1">
          <mxGeometry x="40" y="82" width="50" height="48" as="geometry" />
        </mxCell>
        <mxCell id="36ijze459BlmUgiJYiWi-16" style="edgeStyle=orthogonalEdgeStyle;rounded=0;orthogonalLoop=1;jettySize=auto;html=1;exitX=0.988;exitY=0.42;exitDx=0;exitDy=0;exitPerimeter=0;" parent="36ijze459BlmUgiJYiWi-2" source="36ijze459BlmUgiJYiWi-13" target="36ijze459BlmUgiJYiWi-15" edge="1">
          <mxGeometry relative="1" as="geometry" />
        </mxCell>
        <mxCell id="36ijze459BlmUgiJYiWi-13" value="Celery&lt;br&gt;5 Processos&lt;br&gt;Python" style="verticalLabelPosition=bottom;html=1;verticalAlign=top;align=center;strokeColor=none;fillColor=#00BEF2;shape=mxgraph.azure.service_bus_queues;pointerEvents=1;" parent="36ijze459BlmUgiJYiWi-2" vertex="1">
          <mxGeometry x="290" y="190" width="42.5" height="52" as="geometry" />
        </mxCell>
        <mxCell id="36ijze459BlmUgiJYiWi-15" value="Flower&amp;nbsp;&lt;br&gt;Orchestrator&lt;br&gt;Python" style="shadow=0;dashed=0;html=1;strokeColor=none;fillColor=#EF8F21;labelPosition=center;verticalLabelPosition=bottom;verticalAlign=top;align=center;outlineConnect=0;shape=mxgraph.veeam.availability_orchestrator;" parent="36ijze459BlmUgiJYiWi-2" vertex="1">
          <mxGeometry x="380" y="190" width="44.8" height="44.8" as="geometry" />
        </mxCell>
        <mxCell id="36ijze459BlmUgiJYiWi-4" value="OBM - Front" style="swimlane;whiteSpace=wrap;html=1;" parent="1" vertex="1">
          <mxGeometry x="20" y="470" width="340" height="320" as="geometry" />
        </mxCell>
        <mxCell id="36ijze459BlmUgiJYiWi-17" value="OBM&lt;br&gt;React" style="outlineConnect=0;dashed=0;verticalLabelPosition=bottom;verticalAlign=top;align=center;html=1;shape=mxgraph.aws3.cloudfront;fillColor=#F58536;gradientColor=none;" parent="36ijze459BlmUgiJYiWi-4" vertex="1">
          <mxGeometry x="130" y="106" width="60" height="51.5" as="geometry" />
        </mxCell>
        <mxCell id="36ijze459BlmUgiJYiWi-31" value="Previsão de um conversar com o outro&lt;br&gt;Mas não está confirmado e não está planejado ainda" style="edgeStyle=orthogonalEdgeStyle;rounded=0;orthogonalLoop=1;jettySize=auto;html=1;fillColor=#f8cecc;strokeColor=#FF0000;strokeWidth=5;" parent="1" source="36ijze459BlmUgiJYiWi-5" edge="1">
          <mxGeometry relative="1" as="geometry">
            <mxPoint x="645" y="380" as="targetPoint" />
          </mxGeometry>
        </mxCell>
        <mxCell id="36ijze459BlmUgiJYiWi-5" value="OBM - Backend" style="swimlane;whiteSpace=wrap;html=1;" parent="1" vertex="1">
          <mxGeometry x="410" y="470" width="470" height="320" as="geometry" />
        </mxCell>
        <mxCell id="36ijze459BlmUgiJYiWi-18" value="OBM API&lt;br&gt;Python" style="sketch=0;html=1;dashed=0;whitespace=wrap;fillColor=#2875E2;strokeColor=#ffffff;points=[[0.005,0.63,0],[0.1,0.2,0],[0.9,0.2,0],[0.5,0,0],[0.995,0.63,0],[0.72,0.99,0],[0.5,1,0],[0.28,0.99,0]];verticalLabelPosition=bottom;align=center;verticalAlign=top;shape=mxgraph.kubernetes.icon;prIcon=api" parent="36ijze459BlmUgiJYiWi-5" vertex="1">
          <mxGeometry x="140" y="61" width="50" height="45" as="geometry" />
        </mxCell>
        <mxCell id="36ijze459BlmUgiJYiWi-20" value="OBM API&lt;br&gt;Java" style="sketch=0;html=1;dashed=0;whitespace=wrap;fillColor=#2875E2;strokeColor=#ffffff;points=[[0.005,0.63,0],[0.1,0.2,0],[0.9,0.2,0],[0.5,0,0],[0.995,0.63,0],[0.72,0.99,0],[0.5,1,0],[0.28,0.99,0]];verticalLabelPosition=bottom;align=center;verticalAlign=top;shape=mxgraph.kubernetes.icon;prIcon=api" parent="36ijze459BlmUgiJYiWi-5" vertex="1">
          <mxGeometry x="140" y="157.5" width="50" height="48" as="geometry" />
        </mxCell>
        <mxCell id="36ijze459BlmUgiJYiWi-12" style="edgeStyle=orthogonalEdgeStyle;rounded=0;orthogonalLoop=1;jettySize=auto;html=1;" parent="1" source="36ijze459BlmUgiJYiWi-7" target="36ijze459BlmUgiJYiWi-11" edge="1">
          <mxGeometry relative="1" as="geometry" />
        </mxCell>
        <mxCell id="36ijze459BlmUgiJYiWi-19" style="edgeStyle=orthogonalEdgeStyle;rounded=0;orthogonalLoop=1;jettySize=auto;html=1;exitX=1;exitY=0.21;exitDx=0;exitDy=0;exitPerimeter=0;" parent="1" source="36ijze459BlmUgiJYiWi-17" target="36ijze459BlmUgiJYiWi-18" edge="1">
          <mxGeometry relative="1" as="geometry" />
        </mxCell>
        <mxCell id="36ijze459BlmUgiJYiWi-21" style="edgeStyle=orthogonalEdgeStyle;rounded=0;orthogonalLoop=1;jettySize=auto;html=1;exitX=1;exitY=0.79;exitDx=0;exitDy=0;exitPerimeter=0;" parent="1" source="36ijze459BlmUgiJYiWi-17" target="36ijze459BlmUgiJYiWi-20" edge="1">
          <mxGeometry relative="1" as="geometry" />
        </mxCell>
        <mxCell id="36ijze459BlmUgiJYiWi-22" value="RDS&lt;br&gt;Postgres" style="outlineConnect=0;dashed=0;verticalLabelPosition=bottom;verticalAlign=top;align=center;html=1;shape=mxgraph.aws3.rds;fillColor=#2E73B8;gradientColor=none;" parent="1" vertex="1">
          <mxGeometry x="1050" y="576" width="72" height="81" as="geometry" />
        </mxCell>
        <mxCell id="36ijze459BlmUgiJYiWi-23" style="edgeStyle=orthogonalEdgeStyle;rounded=0;orthogonalLoop=1;jettySize=auto;html=1;entryX=0;entryY=0.22;entryDx=0;entryDy=0;entryPerimeter=0;" parent="1" source="36ijze459BlmUgiJYiWi-18" target="36ijze459BlmUgiJYiWi-22" edge="1">
          <mxGeometry relative="1" as="geometry" />
        </mxCell>
        <mxCell id="36ijze459BlmUgiJYiWi-24" style="edgeStyle=orthogonalEdgeStyle;rounded=0;orthogonalLoop=1;jettySize=auto;html=1;entryX=0;entryY=0.5;entryDx=0;entryDy=0;entryPerimeter=0;" parent="1" source="36ijze459BlmUgiJYiWi-20" target="36ijze459BlmUgiJYiWi-22" edge="1">
          <mxGeometry relative="1" as="geometry">
            <mxPoint x="930" y="606" as="targetPoint" />
          </mxGeometry>
        </mxCell>
        <mxCell id="36ijze459BlmUgiJYiWi-25" value="RDS&lt;br&gt;Postgres" style="outlineConnect=0;dashed=0;verticalLabelPosition=bottom;verticalAlign=top;align=center;html=1;shape=mxgraph.aws3.rds;fillColor=#2E73B8;gradientColor=none;" parent="1" vertex="1">
          <mxGeometry x="1044" y="320" width="72" height="81" as="geometry" />
        </mxCell>
        <mxCell id="36ijze459BlmUgiJYiWi-26" value="Redis" style="outlineConnect=0;dashed=0;verticalLabelPosition=bottom;verticalAlign=top;align=center;html=1;shape=mxgraph.aws3.redis;fillColor=#2E73B8;gradientColor=none;" parent="1" vertex="1">
          <mxGeometry x="1050" y="70" width="60" height="63" as="geometry" />
        </mxCell>
        <mxCell id="36ijze459BlmUgiJYiWi-27" value="Elasticsearch" style="outlineConnect=0;dashed=0;verticalLabelPosition=bottom;verticalAlign=top;align=center;html=1;shape=mxgraph.aws3.elasticsearch_service;fillColor=#F58534;gradientColor=none;" parent="1" vertex="1">
          <mxGeometry x="1050" y="169.5" width="67.5" height="81" as="geometry" />
        </mxCell>
        <mxCell id="36ijze459BlmUgiJYiWi-28" style="edgeStyle=orthogonalEdgeStyle;rounded=0;orthogonalLoop=1;jettySize=auto;html=1;exitX=0.98;exitY=0.5;exitDx=0;exitDy=0;exitPerimeter=0;" parent="1" source="36ijze459BlmUgiJYiWi-11" target="36ijze459BlmUgiJYiWi-27" edge="1">
          <mxGeometry relative="1" as="geometry" />
        </mxCell>
        <mxCell id="36ijze459BlmUgiJYiWi-29" style="edgeStyle=orthogonalEdgeStyle;rounded=0;orthogonalLoop=1;jettySize=auto;html=1;entryX=0;entryY=0.5;entryDx=0;entryDy=0;entryPerimeter=0;exitX=0.9;exitY=0.2;exitDx=0;exitDy=0;exitPerimeter=0;" parent="1" source="36ijze459BlmUgiJYiWi-11" target="36ijze459BlmUgiJYiWi-26" edge="1">
          <mxGeometry relative="1" as="geometry" />
        </mxCell>
        <mxCell id="36ijze459BlmUgiJYiWi-30" style="edgeStyle=orthogonalEdgeStyle;rounded=0;orthogonalLoop=1;jettySize=auto;html=1;entryX=0;entryY=0.5;entryDx=0;entryDy=0;entryPerimeter=0;" parent="1" source="36ijze459BlmUgiJYiWi-11" target="36ijze459BlmUgiJYiWi-25" edge="1">
          <mxGeometry relative="1" as="geometry">
            <Array as="points">
              <mxPoint x="560" y="180" />
              <mxPoint x="560" y="361" />
            </Array>
          </mxGeometry>
        </mxCell>
      </root>
    </mxGraphModel>
  </diagram>
</mxfile>
